<svg width="152" height="19" viewBox="0 0 152 19" fill="none" xmlns="http://www.w3.org/2000/svg">
<path d="M0.550293 18H3.69971V10.3584H12.269V18H15.4062V0.385254H12.269V7.70947H3.69971V0.385254H0.550293V18ZM22.6206 18.2563C24.5737 18.2563 25.9043 17.353 26.5757 15.9736H26.6367V18H29.6763V5.06055H26.6367V12.5557C26.6367 14.4355 25.5259 15.6929 23.7803 15.6929C22.0469 15.6929 21.1924 14.6553 21.1924 12.8242V5.06055H18.1528V13.4224C18.1528 16.4253 19.7764 18.2563 22.6206 18.2563ZM32.1787 18H35.2183V10.0776C35.2183 8.50293 36.2437 7.35547 37.7085 7.35547C39.1245 7.35547 40.0034 8.25879 40.0034 9.71143V18H42.9575V10.0044C42.9575 8.44189 43.9585 7.35547 45.4233 7.35547C46.9126 7.35547 47.7427 8.271 47.7427 9.87012V18H50.7822V9.11328C50.7822 6.52539 49.1099 4.79199 46.5586 4.79199C44.6909 4.79199 43.1528 5.79297 42.5303 7.4043H42.457C41.981 5.74414 40.6748 4.79199 38.8682 4.79199C37.1592 4.79199 35.8286 5.71973 35.2793 7.13574H35.2183V5.06055H32.1787V18ZM57.0444 18.2197C58.7534 18.2197 60.1938 17.3652 60.9385 16.0103H61.0117V18H64.0513V9.10107C64.0513 6.50098 61.9639 4.79199 58.729 4.79199C55.4453 4.79199 53.4556 6.51318 53.2725 8.80811L53.2603 8.95459H56.0801L56.1045 8.84473C56.2998 7.89258 57.1787 7.22119 58.6191 7.22119C60.1572 7.22119 61.0117 8.01465 61.0117 9.3208V10.2119L57.6304 10.4194C54.4932 10.6147 52.7109 11.9941 52.7109 14.2891V14.3135C52.7109 16.6206 54.4565 18.2197 57.0444 18.2197ZM55.7383 14.1914V14.1792C55.7383 13.1538 56.5562 12.5068 58.0576 12.4092L61.0117 12.2261V13.2026C61.0117 14.7407 59.6934 15.9004 57.9478 15.9004C56.6172 15.9004 55.7383 15.2534 55.7383 14.1914ZM66.5049 18H69.5444V10.4927C69.5444 8.625 70.6553 7.35547 72.4009 7.35547C74.1343 7.35547 74.9888 8.39307 74.9888 10.2363V18H78.0283V9.62598C78.0283 6.62305 76.4048 4.79199 73.5605 4.79199C71.5952 4.79199 70.2769 5.69531 69.6055 7.08691H69.5444V5.06055H66.5049V18Z" fill="#948DFF"/>
<path d="M80.4697 18H83.5093V10.0776C83.5093 8.50293 84.5347 7.35547 85.9995 7.35547C87.4155 7.35547 88.2944 8.25879 88.2944 9.71143V18H91.2485V10.0044C91.2485 8.44189 92.2495 7.35547 93.7144 7.35547C95.2036 7.35547 96.0337 8.271 96.0337 9.87012V18H99.0732V9.11328C99.0732 6.52539 97.4009 4.79199 94.8496 4.79199C92.9819 4.79199 91.4438 5.79297 90.8213 7.4043H90.748C90.272 5.74414 88.9658 4.79199 87.1592 4.79199C85.4502 4.79199 84.1196 5.71973 83.5703 7.13574H83.5093V5.06055H80.4697V18ZM105.335 18.2197C107.044 18.2197 108.485 17.3652 109.229 16.0103H109.303V18H112.342V9.10107C112.342 6.50098 110.255 4.79199 107.02 4.79199C103.736 4.79199 101.747 6.51318 101.563 8.80811L101.551 8.95459H104.371L104.396 8.84473C104.591 7.89258 105.47 7.22119 106.91 7.22119C108.448 7.22119 109.303 8.01465 109.303 9.3208V10.2119L105.921 10.4194C102.784 10.6147 101.002 11.9941 101.002 14.2891V14.3135C101.002 16.6206 102.748 18.2197 105.335 18.2197ZM104.029 14.1914V14.1792C104.029 13.1538 104.847 12.5068 106.349 12.4092L109.303 12.2261V13.2026C109.303 14.7407 107.984 15.9004 106.239 15.9004C104.908 15.9004 104.029 15.2534 104.029 14.1914ZM119.605 18.2563C120.216 18.2563 120.753 18.1953 121.107 18.1465V15.8638C120.899 15.876 120.667 15.9126 120.375 15.9126C119.264 15.9126 118.702 15.5098 118.702 14.2402V7.4043H121.107V5.06055H118.702V1.77686H115.614V5.06055H113.783V7.4043H115.614V14.4966C115.614 17.1577 116.896 18.2563 119.605 18.2563ZM128.004 18.2563C128.614 18.2563 129.151 18.1953 129.505 18.1465V15.8638C129.298 15.876 129.066 15.9126 128.773 15.9126C127.662 15.9126 127.101 15.5098 127.101 14.2402V7.4043H129.505V5.06055H127.101V1.77686H124.012V5.06055H122.181V7.4043H124.012V14.4966C124.012 17.1577 125.294 18.2563 128.004 18.2563ZM137.037 18.2563C140.418 18.2563 142.323 16.2544 142.726 14.2646L142.762 14.1304H139.918L139.894 14.2158C139.601 15.0825 138.612 15.8882 137.098 15.8882C135.121 15.8882 133.875 14.5454 133.827 12.2749H142.884V11.2983C142.884 7.39209 140.589 4.79199 136.891 4.79199C133.192 4.79199 130.812 7.47754 130.812 11.5547V11.5669C130.812 15.6807 133.155 18.2563 137.037 18.2563ZM136.927 7.17236C138.539 7.17236 139.71 8.19775 139.93 10.2485H133.863C134.107 8.25879 135.316 7.17236 136.927 7.17236ZM144.85 18H147.889V10.4194C147.889 8.60059 148.927 7.48975 150.648 7.48975C151.161 7.48975 151.625 7.56299 151.881 7.66064V4.91406C151.649 4.85303 151.295 4.79199 150.917 4.79199C149.391 4.79199 148.255 5.70752 147.865 7.22119H147.804V5.06055H144.85V18Z" fill="white"/>
</svg>
